<?xml version="1.0" standalone="no"?>
<!DOCTYPE svg PUBLIC "-//W3C//DTD SVG 20010904//EN"
 "http://www.w3.org/TR/2001/REC-SVG-20010904/DTD/svg10.dtd">
<svg version="1.0" xmlns="http://www.w3.org/2000/svg"
 width="48.000000pt" height="66.000000pt" viewBox="0 0 48.000000 66.000000"
 preserveAspectRatio="xMidYMid meet">
<metadata>
Created by potrace 1.16, written by Peter Selinger 2001-2019
</metadata>
<g transform="translate(0.000000,66.000000) scale(0.100000,-0.100000)"
fill="#000000" stroke="none">
<path d="M117 405 c-91 -62 -110 -201 -40 -294 30 -39 114 -81 164 -81 50 0
139 48 167 89 49 75 51 150 6 228 -23 41 -78 83 -105 83 -8 -1 3 -10 24 -21
84 -44 122 -170 78 -257 -34 -66 -81 -96 -160 -100 -78 -4 -118 14 -165 72
-25 30 -31 48 -34 100 -6 90 26 149 103 189 17 9 23 16 15 17 -9 0 -32 -11
-53 -25z"/>
</g>
</svg>
